<svg width="17" height="10" viewBox="0 0 17 10" fill="none" xmlns="http://www.w3.org/2000/svg">
<path d="M14.0773 0.34977C14.3036 0.125697 14.6092 0 14.9277 0C15.2462 0 15.5518 0.125697 15.7781 0.34977C15.8898 0.459802 15.9785 0.590958 16.0391 0.735605C16.0997 0.880251 16.1309 1.0355 16.1309 1.19231C16.1309 1.34913 16.0997 1.50437 16.0391 1.64902C15.9785 1.79367 15.8898 1.92482 15.7781 2.03485L8.9821 8.6952C8.75528 8.91896 8.44948 9.04442 8.13086 9.04442C7.81224 9.04442 7.50644 8.91896 7.27962 8.6952L0.483636 2.03485C0.371906 1.92482 0.283177 1.79367 0.222613 1.64902C0.162049 1.50437 0.130859 1.34913 0.130859 1.19231C0.130859 1.0355 0.162049 0.880251 0.222613 0.735605C0.283177 0.590958 0.371906 0.459802 0.483636 0.34977C0.709939 0.125697 1.01554 0 1.334 0C1.65247 0 1.95807 0.125697 2.18437 0.34977L8.13347 5.81195L14.0773 0.34977Z" fill="#BB2F31"/>
</svg>
